<?xml version="1.0" encoding="UTF-8" standalone="no"?>
<!-- Created with Inkscape (http://www.inkscape.org/) -->

<svg
   width="297mm"
   height="297mm"
   viewBox="0 0 297 297"
   version="1.1"
   id="svg1"
   inkscape:version="1.4 (e7c3feb1, 2024-10-09)"
   sodipodi:docname="logo.svg"
   inkscape:export-filename="logo.png"
   inkscape:export-xdpi="96"
   inkscape:export-ydpi="96"
   xmlns:inkscape="http://www.inkscape.org/namespaces/inkscape"
   xmlns:sodipodi="http://sodipodi.sourceforge.net/DTD/sodipodi-0.dtd"
   xmlns="http://www.w3.org/2000/svg"
   xmlns:svg="http://www.w3.org/2000/svg">
  <sodipodi:namedview
     id="namedview1"
     pagecolor="#ffffff"
     bordercolor="#000000"
     borderopacity="0.25"
     inkscape:showpageshadow="2"
     inkscape:pageopacity="0.0"
     inkscape:pagecheckerboard="0"
     inkscape:deskcolor="#d1d1d1"
     inkscape:document-units="mm"
     inkscape:zoom="0.319965"
     inkscape:cx="403.1691"
     inkscape:cy="596.94029"
     inkscape:window-width="1440"
     inkscape:window-height="819"
     inkscape:window-x="0"
     inkscape:window-y="25"
     inkscape:window-maximized="0"
     inkscape:current-layer="layer1" />
  <defs
     id="defs1" />
  <g
     inkscape:label="Layer 1"
     inkscape:groupmode="layer"
     id="layer1">
    <path
       id="path16"
       d="m 63.797209,196.69171 h -9.432548 v -9.08248 -9.08249 -9.08218 -9.08249 h -9.432548 v 9.08249 9.08218 9.08249 9.08248 9.08248 h 9.432548 9.432548 9.432549 9.432548 v -9.08248 h -9.432548 z"
       style="fill:#000000;fill-opacity:1;fill-rule:nonzero;stroke:none;stroke-width:0.314216" />
    <path
       id="path17"
       d="m 129.82439,160.3621 h -18.8651 v 9.0825 h 18.8651 z m 0,9.0825 v 9.08217 h -18.86478 v -9.08217 h -9.43253 v 36.32963 h 9.43253 v -18.16498 h 18.86478 v 18.16498 h 9.43255 V 169.4446 Z"
       style="fill:#000000;fill-opacity:1;fill-rule:nonzero;stroke:none;stroke-width:0.314216" />
    <path
       id="path18"
       d="m 176.98695,160.36204 h -9.43255 -9.43255 v 9.08248 9.08249 9.08218 9.08249 9.08249 h 9.43255 9.43255 9.43255 9.43254 v -9.08249 -9.08249 h -9.43254 v 9.08249 h -9.43255 -9.43255 v -9.08249 h 9.43255 9.43255 v -9.08218 h -9.43255 -9.43255 v -9.08249 h 9.43255 9.43255 v 9.08249 h 9.43254 v -9.08249 -9.08248 h -9.43254 z"
       style="fill:#000000;fill-opacity:1;fill-rule:nonzero;stroke:none;stroke-width:0.314216" />
    <path
       id="path19"
       d="m 233.58184,160.36204 h -9.43255 -9.43256 v 9.08248 9.08249 9.08218 h 9.43256 9.43255 9.43253 v 9.08249 h -9.43253 -9.43255 -9.43256 v 9.08249 h 9.43256 9.43255 9.43253 9.43256 v -9.08249 -9.08249 -9.08218 h -9.43256 -9.43253 -9.43255 v -9.08249 h 9.43255 9.43253 9.43256 v -9.08248 h -9.43256 z"
       style="fill:#000000;fill-opacity:1;fill-rule:nonzero;stroke:none;stroke-width:0.314216" />
    <path
       id="path20"
       d="m 40.216006,133.11477 v -9.08248 h 9.432548 9.432549 9.432228 v -9.0825 -9.08217 -9.082437 h -9.432228 -9.432549 -9.432548 -9.432548 v 9.082437 h 9.432548 9.432548 9.432549 v 9.08217 h -9.432549 -9.432548 -9.432548 v 9.0825 9.08248 9.08248 h 9.432548 z"
       style="fill:#000000;fill-opacity:1;fill-rule:nonzero;stroke:none;stroke-width:0.314216" />
    <path
       id="path21"
       d="m 115.6758,114.94994 v 9.08248 H 96.810726 v 18.16467 h -9.432208 v -27.24715 z"
       style="fill:#000000;fill-opacity:1;fill-rule:nonzero;stroke:none;stroke-width:0.314216" />
    <path
       id="path22"
       d="m 125.1083,96.785148 v 18.164912 h -9.43255 v -9.08249 H 87.37847 v -9.082422 z"
       style="fill:#000000;fill-opacity:1;fill-rule:nonzero;stroke:none;stroke-width:0.314216" />
    <path
       id="path23"
       d="m 115.67573,124.03247 h 9.43255 v 18.16497 h -9.43255 z"
       style="fill:#000000;fill-opacity:1;fill-rule:nonzero;stroke:none;stroke-width:0.314216" />
    <path
       id="path24"
       d="m 257.16304,114.94994 v 9.08248 h -18.86511 v 18.16467 h -9.43222 v -27.24715 z"
       style="fill:#000000;fill-opacity:1;fill-rule:nonzero;stroke:none;stroke-width:0.314216" />
    <path
       id="path25"
       d="m 266.59551,96.785148 v 18.164912 h -9.43254 v -9.08249 h -28.29733 v -9.082422 z"
       style="fill:#000000;fill-opacity:1;fill-rule:nonzero;stroke:none;stroke-width:0.314216" />
    <path
       id="path26"
       d="m 257.16299,124.03247 h 9.43255 v 18.16497 h -9.43255 z"
       style="fill:#000000;fill-opacity:1;fill-rule:nonzero;stroke:none;stroke-width:0.314216" />
    <path
       id="path27"
       d="m 200.56802,133.11464 h -18.8651 v -27.24715 h 18.8651 z m -28.29732,9.08249 h 37.72988 V 96.785069 H 172.2707 Z"
       style="fill:#000000;fill-opacity:1;fill-rule:nonzero;stroke:none;stroke-width:0.314216" />
    <path
       id="path28"
       d="m 153.40575,133.11477 v -9.08248 -9.0825 -9.08217 -9.082437 h -9.43255 v 9.082437 9.08217 9.0825 9.08248 9.08248 h 9.43255 z"
       style="fill:#000000;fill-opacity:1;fill-rule:nonzero;stroke:none;stroke-width:0.314216" />
  </g>
</svg>
